<svg width="36" height="37" viewBox="0 0 36 37" fill="none" xmlns="http://www.w3.org/2000/svg">
  <path d="M6 1H30C33.0376 1 35.5 3.46243 35.5 6.5V30.5C35.5 33.5376 33.0376 36 30 36H6C2.96243 36 0.5 33.5376 0.5 30.5V6.5C0.5 3.46243 2.96243 1 6 1Z" fill="white" stroke="#FBFBFB"/>
  <path d="M19.2168 10.8085C19.2168 9.69292 20.5735 9.14309 21.3502 9.94393L28.5067 17.3232C28.978 17.8092 29.2416 18.4596 29.2416 19.1366V27.678C29.2416 28.7936 27.8849 29.3434 27.1082 28.5426L19.9517 21.1633C19.4804 20.6773 19.2168 20.0269 19.2168 19.3499V10.8085Z" fill="#FFBB00"/>
  <path d="M13.0039 10.5644C13.0039 9.44878 14.3606 8.89895 15.1373 9.69979L22.1882 16.9701C22.7273 17.526 23.0287 18.2698 23.0287 19.0441V27.4338C23.0287 28.5494 21.672 29.0993 20.8953 28.2984L13.7388 20.9192C13.2675 20.4332 13.0039 19.7828 13.0039 19.1058V10.5644Z" fill="#FF5C00"/>
  <path d="M7 10.8085C7 9.69292 8.35672 9.14309 9.1334 9.94393L16.2899 17.3232C16.7612 17.8092 17.0248 18.4596 17.0248 19.1366V27.678C17.0248 28.7936 15.6681 29.3434 14.8914 28.5426L7.7349 21.1633C7.26359 20.6773 7 20.0269 7 19.3499V10.8085Z" fill="#3480FE"/>
</svg>