<?xml version="1.0" standalone="no"?>
<!DOCTYPE svg PUBLIC "-//W3C//DTD SVG 20010904//EN"
 "http://www.w3.org/TR/2001/REC-SVG-20010904/DTD/svg10.dtd">
<svg version="1.0" xmlns="http://www.w3.org/2000/svg"
 width="300.000000pt" height="400.000000pt" viewBox="0 0 300.000000 400.000000"
 preserveAspectRatio="xMidYMid meet">
<metadata>
Created by potrace 1.10, written by Peter Selinger 2001-2011
</metadata>
<g transform="translate(0.000000,400.000000) scale(0.100000,-0.100000)"
fill="#000000" stroke="none">
<path d="M1213 3963 c-13 -2 -23 -12 -23 -21 0 -13 -2 -14 -8 -4 -19 29 -147
-90 -193 -180 -21 -41 -23 -48 -11 -48 4 0 20 25 36 55 32 61 97 140 130 156
11 6 2 -5 -21 -25 -48 -42 -117 -150 -110 -171 3 -7 -1 -16 -10 -19 -8 -4 -13
-13 -10 -20 3 -8 0 -17 -8 -19 -19 -8 -27 4 -14 20 8 9 8 13 1 13 -6 0 -18
-26 -26 -57 -9 -32 -25 -84 -36 -117 -11 -32 -17 -62 -14 -67 3 -5 2 -15 -3
-21 -4 -7 -8 -17 -9 -23 -7 -32 -15 -89 -23 -151 -5 -39 -16 -86 -25 -105 -15
-29 -15 -31 -1 -14 21 26 42 104 51 185 3 35 12 81 20 101 7 21 10 48 7 61 -3
15 -2 19 4 10 7 -9 14 -2 26 23 23 48 21 58 -3 15 -27 -49 -24 -15 5 44 12 28
21 56 18 63 -3 8 2 11 15 8 16 -3 26 9 50 58 47 96 93 159 137 188 22 15 43
25 47 23 4 -2 9 0 13 6 3 5 17 10 30 10 32 0 56 10 49 21 -5 9 -50 10 -91 2z"/>
<path d="M1320 3960 c0 -5 8 -14 18 -19 14 -9 11 -11 -18 -11 -19 -1 -44 -5
-55 -10 -19 -9 25 -6 82 6 15 3 26 -2 32 -14 5 -10 28 -40 50 -67 23 -27 41
-53 41 -57 0 -10 -78 -30 -93 -25 -7 3 0 10 16 16 29 11 37 31 12 31 -8 0 -15
-5 -15 -11 0 -5 -6 -7 -12 -3 -7 4 -10 4 -6 0 8 -9 -61 -72 -75 -68 -4 1 -6
-2 -2 -8 3 -5 1 -10 -6 -10 -7 0 -9 -3 -6 -7 4 -3 0 -15 -10 -25 -33 -37 -3
-28 36 11 37 37 88 60 142 64 9 1 17 5 16 10 -1 5 4 12 11 14 6 3 12 -3 12
-12 0 -9 20 -34 44 -57 25 -22 53 -59 64 -81 25 -54 45 -151 37 -178 -6 -18
-13 -21 -45 -16 -30 4 -43 1 -56 -14 -16 -18 -16 -19 9 -19 15 0 27 5 27 10 0
6 7 10 16 10 10 0 14 -6 10 -15 -4 -10 1 -15 14 -15 22 0 34 -34 33 -91 -1
-86 -143 -289 -211 -302 -39 -8 -55 -50 -56 -140 -1 -77 -10 -63 95 -159 10
-10 22 -18 25 -18 3 0 12 -7 21 -15 8 -9 18 -13 22 -10 3 4 -5 15 -19 26 l-25
19 29 22 c29 22 76 108 76 141 0 9 4 17 9 17 11 0 24 73 23 129 -2 71 36 112
39 43 2 -27 2 -27 6 -2 2 14 14 57 25 95 18 61 20 88 15 215 -5 154 -26 276
-58 350 -33 75 -98 166 -137 194 -56 38 -113 60 -122 46 -5 -9 -15 -8 -38 4
-36 19 -42 19 -42 6z m148 -44 c27 -14 55 -32 63 -42 13 -16 12 -16 -18 0 -18
9 -49 20 -70 24 -24 5 -39 14 -41 25 -5 23 10 21 66 -7z m63 -69 c23 -17 17
-17 -28 -1 -10 4 0 -7 22 -23 88 -65 120 -128 149 -293 9 -52 21 -112 27 -133
11 -41 2 -71 -13 -44 -4 9 -15 69 -24 134 -15 116 -54 233 -77 233 -15 0 -79
51 -72 58 3 3 -5 12 -17 20 -14 8 -16 11 -5 8 11 -3 15 -2 12 4 -3 6 -12 10
-19 10 -8 0 -19 7 -26 15 -10 12 -9 15 4 15 16 0 16 1 2 16 -9 8 -16 17 -16
19 0 7 56 -19 81 -38z m154 -636 c-4 -27 -13 -55 -21 -62 -8 -6 -14 -18 -14
-25 0 -7 -9 -28 -20 -46 -11 -18 -20 -43 -20 -56 0 -13 -5 -33 -11 -44 -9 -16
-8 -19 2 -13 9 6 11 3 6 -9 -4 -10 -10 -29 -13 -42 -7 -26 -19 -31 -28 -11 -4
8 -5 7 -4 -3 3 -28 -15 -115 -28 -140 -9 -17 -13 -20 -14 -9 0 9 -7 22 -15 29
-11 10 -18 9 -30 -4 -23 -23 -53 -4 -61 39 -11 61 -9 115 7 129 24 23 111 67
123 62 6 -2 3 -5 -8 -5 -12 -1 -16 -6 -12 -16 3 -8 2 -15 -3 -15 -4 0 -8 -7
-8 -15 0 -8 1 -15 3 -15 4 0 36 53 38 64 1 6 12 31 25 54 12 24 20 46 17 49
-7 8 13 45 22 39 4 -2 8 6 8 18 1 12 11 37 23 56 19 31 21 32 18 10 -2 -16 0
-13 6 7 15 46 20 33 12 -26z"/>
<path d="M1518 2903 c-17 -20 -31 -66 -17 -57 5 3 9 14 9 26 0 14 5 18 15 14
10 -4 15 1 15 14 0 24 -3 25 -22 3z"/>
<path d="M1201 3885 c-13 -14 -26 -25 -31 -25 -19 0 -97 -118 -131 -199 -21
-50 -47 -101 -58 -113 -12 -12 -21 -28 -21 -35 0 -7 -4 -21 -9 -31 -32 -63
-44 -108 -52 -188 -9 -104 -30 -154 -91 -217 -21 -22 -36 -42 -33 -45 10 -10
218 26 226 39 14 23 33 16 52 -18 20 -38 21 -47 6 -38 -11 8 19 -55 48 -96 10
-14 25 -24 33 -22 12 4 12 2 2 -5 -10 -7 -10 -11 3 -22 13 -11 14 -10 8 6 -6
16 -3 16 28 -5 19 -12 42 -25 52 -28 25 -8 21 -25 -5 -23 -37 3 -45 -1 -18
-10 45 -14 87 -11 111 10 l24 20 -28 -6 c-40 -9 -131 39 -194 102 -29 29 -53
58 -53 64 0 7 20 -10 45 -37 28 -29 41 -38 33 -23 -7 14 -18 28 -25 33 -6 4
-19 27 -28 52 -10 24 -21 42 -25 40 -13 -8 -19 22 -7 34 15 15 15 123 -1 129
-7 2 -12 11 -12 20 0 10 -13 26 -29 36 -39 27 -58 62 -59 116 -1 31 1 39 7 26
7 -19 8 -18 14 5 10 35 8 51 -3 44 -6 -3 -7 1 -4 9 8 20 14 20 31 -1 13 -17
14 -16 8 4 -3 12 1 39 10 60 9 21 18 46 20 55 2 9 11 29 21 43 10 15 25 41 34
58 10 18 23 32 29 32 7 0 33 23 59 51 26 28 61 57 79 65 39 16 34 32 -7 18
-40 -15 -167 -138 -175 -171 -4 -16 -11 -28 -16 -28 -13 0 -12 6 15 58 25 50
108 134 151 154 18 8 22 14 13 20 -18 11 -20 10 -47 -17z m-250 -550 c6 16 8
14 8 -12 1 -17 6 -35 11 -38 6 -3 11 -18 11 -33 1 -27 1 -27 8 3 l6 30 18 -25
c9 -13 17 -28 17 -33 0 -5 7 -15 16 -24 21 -21 14 -65 -12 -78 -12 -6 -28 -16
-36 -22 -7 -6 -31 -14 -53 -17 -22 -3 -50 -7 -62 -10 -28 -6 -28 -7 1 48 17
32 26 69 31 133 7 92 17 126 24 83 3 -23 4 -24 12 -5z"/>
<path d="M1298 3825 c-62 -25 -120 -75 -201 -170 l-51 -60 46 43 c28 27 48 40
52 33 4 -6 3 -11 -2 -11 -5 0 -24 -19 -42 -42 l-33 -43 44 44 c24 24 44 48 44
53 0 6 27 35 60 65 33 30 54 51 46 47 -9 -5 -12 -3 -7 4 5 9 13 9 26 2 13 -7
21 -7 26 2 4 7 3 8 -4 4 -7 -4 -12 -5 -12 -2 0 3 18 15 40 26 23 12 40 16 40
10 0 -6 5 -8 10 -5 16 10 12 25 -7 25 -10 -1 -44 -12 -75 -25z m-49 -48 c-2
-2 -29 -26 -59 -53 -30 -27 -48 -40 -40 -30 23 30 84 85 94 86 5 0 7 -1 5 -3z"/>
<path d="M1250 3738 c-5 -18 -8 -29 -9 -38 0 -5 -19 -22 -41 -36 -22 -15 -37
-30 -34 -35 3 -5 0 -9 -6 -9 -6 0 -9 -4 -5 -9 3 -5 -3 -12 -12 -16 -10 -3 -28
-22 -40 -41 -13 -19 -17 -32 -10 -28 9 6 9 4 -1 -8 -15 -18 -24 -53 -23 -85 0
-12 -4 -25 -9 -28 -6 -4 -5 -15 4 -28 7 -12 16 -43 20 -69 4 -38 3 -48 -9 -48
-8 0 -15 -4 -15 -10 0 -5 6 -10 14 -10 8 0 20 -17 26 -37 17 -53 48 -101 73
-115 19 -10 18 -7 -6 23 -44 54 -66 109 -67 172 -1 81 -2 87 -12 81 -11 -7 -1
72 15 119 8 20 23 48 35 62 12 14 28 40 36 58 7 19 25 42 38 53 30 23 51 61
44 77 -2 7 -5 9 -6 5z"/>
<path d="M1235 3641 c-3 -12 -3 -26 1 -32 4 -7 3 -9 -2 -6 -9 5 -114 -162
-114 -180 0 -4 21 24 46 62 44 68 45 69 40 32 -3 -21 -13 -71 -21 -110 -16
-79 -18 -200 -5 -244 8 -28 14 -16 11 24 -1 11 5 55 13 97 9 41 16 85 16 96 0
31 -20 14 -21 -18 -2 -24 -2 -24 -6 -4 -2 12 1 39 8 60 7 20 12 43 11 50 -2 6
1 12 6 12 5 0 7 11 5 24 -3 13 0 27 6 30 6 4 11 17 11 29 0 12 6 34 14 49 12
22 12 29 1 38 -10 8 -15 6 -20 -9z"/>
<path d="M1258 3523 c-10 -2 -18 -9 -18 -14 0 -6 4 -8 8 -5 4 2 41 -2 82 -10
89 -17 80 -16 80 -6 0 21 -112 47 -152 35z"/>
<path d="M1545 3499 c-11 -16 1 -21 34 -14 44 9 48 25 7 25 -19 0 -38 -5 -41
-11z"/>
<path d="M1240 3440 c-12 -7 -12 -12 4 -29 24 -27 40 -27 33 0 -5 20 -5 20 15
3 19 -18 20 -18 33 0 13 18 41 14 30 -5 -4 -5 1 -9 9 -9 21 0 20 13 -2 33 -20
19 -97 23 -122 7z"/>
<path d="M1027 3363 c-8 -7 21 -43 34 -43 5 0 3 11 -3 25 -11 26 -19 30 -31
18z"/>
<path d="M1401 3320 c-13 -19 -21 -42 -19 -58 3 -25 7 -27 61 -32 49 -4 60 -2
68 12 10 19 -5 35 -16 17 -5 -6 -20 -8 -40 -5 -22 4 -36 2 -41 -6 -11 -18 -23
23 -13 44 5 10 15 15 22 12 8 -3 13 5 15 21 2 33 -9 32 -37 -5z"/>
<path d="M1373 3167 c-82 -21 -51 -29 116 -31 41 -1 50 15 17 30 -20 9 -28 8
-40 -4 -13 -14 -18 -14 -28 -3 -11 11 -10 12 1 6 9 -5 12 -4 7 3 -8 13 -14 13
-73 -1z"/>
<path d="M1196 3115 c4 -11 8 -30 9 -41 1 -23 39 -73 65 -89 8 -4 5 3 -7 16
-12 13 -33 49 -47 79 -15 30 -23 46 -20 35z"/>
<path d="M1360 3120 c0 -5 7 -10 15 -10 8 0 15 -7 15 -15 0 -25 63 -19 86 7
12 14 13 18 3 10 -17 -12 -68 -8 -101 10 -12 5 -18 5 -18 -2z"/>
<path d="M1000 3042 c0 -20 62 -187 85 -230 22 -38 22 -45 9 -70 -19 -37 -18
-59 4 -71 17 -9 18 -6 12 34 -9 60 7 74 37 33 27 -37 30 -58 7 -58 -9 0 -14
-6 -11 -12 2 -7 12 -13 23 -13 10 0 18 6 17 13 -2 6 2 12 7 12 20 0 9 20 -35
67 -55 57 -76 96 -117 211 -30 88 -38 104 -38 84z"/>
<path d="M1300 3021 c0 -6 4 -11 8 -11 5 0 18 -9 29 -20 18 -17 23 -17 33 -5
10 12 9 15 -7 15 -10 0 -29 7 -41 16 -12 8 -22 10 -22 5z"/>
<path d="M1050 2978 c0 -19 54 -127 61 -123 4 3 16 -8 25 -25 10 -16 25 -30
32 -30 9 0 1 16 -20 43 -20 23 -49 64 -67 92 -17 27 -31 46 -31 43z"/>
<path d="M589 2940 c-13 -10 -20 -19 -15 -20 5 0 4 -6 -2 -13 -10 -12 -53
-118 -54 -134 0 -5 -5 -19 -10 -32 -7 -20 -6 -22 6 -12 7 6 17 28 21 47 3 19
17 55 31 80 14 24 24 51 22 59 -2 7 6 21 17 29 11 9 17 16 14 16 -4 0 -17 -9
-30 -20z"/>
<path d="M847 2865 c2 -55 6 -101 9 -104 7 -7 3 152 -5 179 -4 14 -6 -20 -4
-75z"/>
<path d="M1342 2819 c-13 -16 -31 -29 -39 -29 -14 0 -14 -3 2 -20 10 -11 21
-20 26 -20 7 0 42 91 36 95 -1 1 -12 -11 -25 -26z"/>
<path d="M1152 2779 c2 -6 7 -9 12 -7 5 2 13 -8 18 -21 11 -30 30 -15 22 17
-5 15 -14 22 -31 22 -14 0 -23 -5 -21 -11z"/>
<path d="M1228 2759 c-7 -22 4 -59 18 -59 10 0 11 7 2 33 -14 40 -15 41 -20
26z"/>
<path d="M1285 2739 c0 -32 7 -36 24 -16 8 11 7 18 -7 30 -16 14 -17 14 -17
-14z"/>
<path d="M851 2700 c-3 -81 -21 -125 -49 -124 -50 3 -123 -202 -137 -384 -4
-49 -2 -46 10 23 8 44 25 121 38 170 l22 90 6 -60 6 -60 0 68 0 68 51 45 c56
49 67 83 59 174 -3 45 -4 45 -6 -10z"/>
<path d="M1303 2700 c-13 -5 -23 -15 -23 -21 0 -7 3 -9 7 -6 3 4 12 2 20 -5
13 -10 63 -19 63 -10 0 8 -33 52 -39 51 -3 0 -16 -4 -28 -9z"/>
<path d="M1220 2684 c0 -3 7 -12 15 -21 9 -9 14 -26 11 -41 -2 -15 -5 -54 -5
-86 -1 -59 -14 -68 -24 -16 -3 16 -5 11 -6 -17 -1 -37 2 -42 29 -52 28 -9 30
-8 30 15 0 14 -4 22 -10 19 -6 -3 -10 4 -10 17 0 19 2 20 11 8 8 -11 9 4 5 55
-3 39 -6 82 -6 98 0 20 -5 27 -20 27 -11 0 -20 -3 -20 -6z"/>
<path d="M1381 2668 c7 -13 15 -15 31 -9 34 13 31 26 -6 26 -29 0 -33 -3 -25
-17z"/>
<path d="M1443 2630 c-8 -23 -16 -28 -29 -23 -12 4 -15 2 -12 -8 3 -8 11 -13
17 -11 14 3 14 -9 1 -44 -6 -15 -8 -29 -6 -31 3 -3 15 27 27 66 21 72 23 106
2 51z"/>
<path d="M1161 2608 c1 -24 3 -27 6 -10 2 12 9 20 14 17 5 -4 9 1 9 9 0 9 -7
16 -15 16 -11 0 -15 -10 -14 -32z"/>
<path d="M880 2604 c0 -16 8 -23 30 -28 32 -6 132 -45 233 -90 l58 -26 -3 22
c-2 13 -7 22 -13 21 -5 -1 -16 3 -22 9 -8 6 -13 7 -13 1 0 -12 -252 86 -262
101 -5 6 -8 2 -8 -10z"/>
<path d="M421 2525 c-11 -30 -25 -103 -31 -162 -5 -60 -16 -160 -24 -223 -8
-63 -19 -187 -26 -275 -6 -88 -17 -203 -25 -255 -8 -52 -19 -153 -25 -225 -6
-71 -13 -154 -15 -184 -7 -83 13 -267 41 -371 14 -52 32 -131 40 -175 20 -109
49 -210 95 -334 45 -119 149 -321 165 -321 12 0 -51 140 -68 151 -5 3 -10 12
-12 20 -1 8 -14 34 -28 59 -30 52 -77 200 -85 271 -3 26 -9 46 -13 44 -9 -5
-25 52 -48 165 -17 87 -19 170 -10 365 l7 140 -15 -120 c-8 -66 -18 -142 -22
-170 l-8 -50 -10 50 c-15 81 -10 331 8 405 23 94 32 215 17 242 -11 21 -11 22
4 10 14 -12 16 -11 16 5 -1 46 12 236 22 306 5 42 7 81 4 86 -3 5 -1 12 4 15
5 3 9 30 10 58 1 54 2 69 17 193 8 70 10 83 13 88 1 1 4 21 6 44 2 24 6 57 10
74 6 25 4 30 -6 25 -8 -4 -7 -2 2 6 10 8 14 20 9 33 -10 27 -1 52 11 33 7 -10
9 -9 9 4 0 38 -20 25 -39 -27z"/>
<path d="M1654 2495 c0 -61 -8 -114 -40 -248 -31 -133 -32 -135 -39 -147 -14
-22 -77 -294 -90 -390 -19 -129 -20 -189 -5 -260 6 -30 17 -133 25 -229 9 -96
16 -175 18 -176 1 -1 28 -7 59 -14 32 -7 60 -17 63 -22 4 -5 14 -9 23 -9 11 0
4 9 -18 22 -19 12 -37 26 -40 30 -3 4 -18 9 -34 12 -40 7 -45 14 -50 69 -4 33
-1 47 7 47 9 0 9 2 0 8 -7 4 -12 16 -11 27 0 11 -3 55 -7 98 -7 74 -6 79 14
84 12 3 21 9 21 15 0 5 -8 4 -19 -1 -16 -9 -20 -6 -29 29 -8 33 -7 40 7 43 10
3 7 5 -8 6 -23 1 -24 2 -17 84 11 123 41 271 96 472 55 198 100 389 99 420 0
11 -6 34 -13 50 -12 30 -13 30 -12 -20z"/>
<path d="M1390 2473 c-10 -29 -33 -38 -55 -23 -23 16 -45 19 -45 5 0 -8 15
-18 33 -23 17 -6 40 -13 50 -17 13 -6 17 -2 17 15 0 12 5 30 11 42 6 11 8 22
5 25 -3 4 -11 -7 -16 -24z"/>
<path d="M1405 2365 c12 -86 10 -197 -5 -292 l-14 -83 -58 0 c-46 0 -58 -3
-58 -16 0 -8 -5 -12 -10 -9 -6 4 -8 11 -5 16 4 5 -2 9 -13 9 -14 0 -21 -9 -25
-32 -3 -18 -9 -42 -13 -53 -6 -15 1 -12 29 13 21 17 44 32 52 32 8 0 19 8 24
18 14 23 14 21 -9 -120 -31 -182 -58 -278 -78 -271 -10 4 -13 3 -8 -6 5 -7 10
-69 12 -139 3 -70 9 -143 15 -162 18 -62 23 -132 10 -140 -8 -4 -2 -11 18 -20
25 -10 31 -19 32 -44 0 -17 3 -42 6 -56 8 -36 8 -89 0 -130 l-6 -35 15 28 c20
37 36 134 25 155 -17 34 -30 69 -61 167 -29 91 -32 111 -32 230 0 112 3 137
22 178 12 27 24 61 26 75 3 15 14 68 24 117 16 76 23 113 29 156 1 3 12 11 25
17 27 12 36 38 56 152 15 88 19 183 8 196 -5 7 -10 27 -11 45 -1 19 -8 41 -16
49 -12 13 -13 7 -6 -45z"/>
<path d="M1207 2305 c3 -49 7 -92 9 -94 7 -7 3 82 -6 134 -6 37 -7 26 -3 -40z"/>
<path d="M715 2200 c-4 -34 -5 -63 -2 -66 2 -3 7 23 11 57 4 33 5 63 3 66 -3
2 -8 -23 -12 -57z"/>
<path d="M1273 2170 c0 -47 2 -66 4 -42 2 23 2 61 0 85 -2 23 -4 4 -4 -43z"/>
<path d="M760 2079 c-41 -16 -84 -28 -95 -26 -14 2 -21 -2 -21 -14 0 -14 4
-15 19 -7 27 14 32 3 18 -43 -7 -22 -10 -43 -8 -46 3 -2 8 8 11 24 14 64 40
89 108 106 36 9 76 14 89 12 13 -3 39 -7 58 -10 18 -2 38 -9 45 -14 6 -5 14
-10 19 -10 17 -1 87 -38 82 -43 -3 -3 2 -5 12 -5 42 0 53 -4 53 -18 0 -8 6
-12 14 -9 36 14 31 -46 -7 -93 -22 -26 -51 -92 -44 -99 2 -2 17 16 34 40 28
40 72 161 62 171 -2 2 -36 16 -74 30 -258 98 -263 99 -375 54z"/>
<path d="M583 1743 c-4 -10 -11 -21 -16 -25 -6 -4 -4 -13 6 -23 16 -15 17 -15
17 3 0 11 6 23 13 25 9 4 8 6 -2 6 -11 1 -11 4 -1 16 9 11 9 15 1 15 -6 0 -15
-8 -18 -17z"/>
<path d="M632 1714 c9 -8 110 -34 133 -33 11 0 -14 9 -55 19 -86 22 -85 22
-78 14z"/>
<path d="M1070 1675 c-9 -11 -35 -15 -108 -15 -52 0 -93 -2 -90 -5 4 -4 145
-6 194 -2 11 1 21 9 21 19 2 22 -1 22 -17 3z"/>
<path d="M640 1673 c0 -15 38 -103 44 -103 6 0 -2 21 -28 80 -8 19 -15 30 -16
23z"/>
<path d="M1102 1653 c2 -10 9 -17 15 -16 6 1 19 -7 28 -17 10 -11 24 -20 32
-20 7 0 -4 16 -26 35 -43 39 -54 43 -49 18z"/>
<path d="M991 1589 c-1 -9 16 -42 37 -75 65 -101 99 -166 137 -262 34 -85 60
-130 48 -82 -3 11 -9 23 -14 26 -5 3 -9 16 -9 28 0 13 -7 37 -15 52 -8 16 -15
36 -15 44 0 9 -35 70 -78 136 -44 66 -81 126 -85 134 -4 13 -6 12 -6 -1z"/>
<path d="M731 1583 c-1 -7 17 -63 40 -125 23 -62 52 -144 66 -183 32 -91 38
-103 75 -145 17 -19 24 -24 15 -10 -28 42 -95 187 -100 218 -2 9 -21 64 -44
122 -22 58 -43 112 -46 120 -3 8 -6 10 -6 3z"/>
<path d="M966 1581 c-6 -9 74 -194 81 -188 2 2 -9 30 -24 63 -14 32 -26 64
-26 71 0 7 -4 13 -9 13 -5 0 -6 5 -3 10 3 6 2 10 -4 10 -6 0 -8 7 -5 15 7 16
-1 21 -10 6z"/>
<path d="M1138 1538 c11 -13 32 -43 46 -68 30 -53 35 -46 6 8 -22 42 -54 82
-66 82 -4 0 2 -10 14 -22z"/>
<path d="M346 1433 c-15 -241 -15 -249 -5 -218 10 33 25 315 16 315 -3 0 -8
-44 -11 -97z"/>
<path d="M915 1477 c3 -27 10 -56 16 -65 8 -13 9 -10 3 13 -24 104 -24 103
-19 52z"/>
<path d="M1658 1502 c-71 -21 -83 -32 -26 -25 40 5 98 28 98 38 0 7 -8 5 -72
-13z"/>
<path d="M396 1365 c2 -60 6 -111 8 -112 2 -2 6 22 10 54 4 38 1 77 -9 113
l-14 55 5 -110z"/>
<path d="M439 1357 c9 -34 20 -65 24 -68 4 -3 5 -14 1 -25 -4 -14 -3 -15 4 -6
7 11 12 7 20 -15 6 -15 28 -77 50 -138 45 -124 96 -239 179 -400 64 -126 71
-137 65 -95 -2 16 -8 27 -13 24 -5 -3 -9 0 -9 5 0 6 5 11 10 11 6 0 -19 57
-55 126 -77 149 -155 323 -226 504 -27 71 -54 132 -58 134 -4 3 0 -23 8 -57z"/>
<path d="M2674 1377 c10 -42 55 -135 55 -112 0 11 -13 47 -30 80 -17 33 -28
47 -25 32z"/>
<path d="M500 1304 c0 -6 8 -20 18 -32 10 -11 38 -48 62 -83 25 -34 57 -76 71
-93 15 -17 51 -69 81 -116 30 -47 63 -92 74 -100 16 -13 16 -12 -2 15 -11 17
-31 48 -43 70 -22 37 -22 38 -2 15 12 -14 55 -74 95 -135 41 -60 100 -145 132
-188 55 -75 57 -81 79 -195 11 -64 26 -117 32 -117 5 0 22 -14 37 -32 14 -17
49 -48 77 -68 l51 -36 -19 31 c-19 34 -54 68 -39 40 4 -8 1 -7 -8 3 -8 11 -13
24 -12 30 2 7 1 9 -1 5 -5 -8 -75 38 -84 55 -4 7 -10 41 -13 77 -8 75 -44 236
-59 265 -14 27 -120 148 -263 300 -67 72 -150 164 -184 205 -79 96 -80 96 -80
84z m443 -506 c55 -66 87 -117 87 -138 0 -15 -89 79 -106 112 -8 15 -25 44
-39 64 -27 39 -34 68 -11 44 7 -8 38 -45 69 -82z"/>
<path d="M2687 1223 c-8 -7 2 -81 15 -105 20 -40 25 -14 8 41 -10 33 -15 62
-12 65 3 3 3 6 0 6 -2 0 -8 -3 -11 -7z"/>
<path d="M1958 1080 c-7 -11 -17 -20 -23 -20 -5 0 -10 -18 -11 -40 l0 -41 14
27 c37 71 51 125 20 74z"/>
<path d="M427 990 c4 -47 6 -94 5 -105 -1 -16 1 -17 8 -5 7 10 8 0 4 -30 -5
-37 -2 -49 15 -69 12 -13 22 -30 22 -38 1 -13 4 -26 9 -40 1 -5 2 -11 1 -15 0
-4 11 -34 26 -65 14 -32 27 -60 28 -63 15 -44 59 -133 52 -105 -3 11 -29 83
-57 160 -44 118 -95 311 -113 430 -3 17 -3 -8 0 -55z"/>
<path d="M2701 1027 c-6 -8 -9 -16 -6 -19 3 -3 5 -47 5 -99 1 -52 5 -170 10
-264 5 -93 15 -277 21 -407 7 -131 14 -236 15 -235 2 1 5 30 8 62 3 40 9 59
17 57 7 -2 9 3 4 15 -24 59 -28 95 -30 258 -3 179 -10 314 -21 390 -11 72 -11
80 -1 86 5 4 5 14 -1 26 -8 15 -8 24 1 33 9 10 9 11 -2 5 -9 -5 -12 -3 -9 6 3
8 12 13 19 11 10 -3 9 1 -2 15 -9 10 -16 30 -15 46 2 31 2 31 -13 14z"/>
<path d="M1200 811 c0 -5 13 -19 29 -30 38 -27 59 -91 66 -201 4 -47 12 -105
20 -130 14 -51 15 -149 0 -152 -16 -5 -61 73 -83 142 -37 117 -54 160 -63 160
-12 0 -11 -11 6 -59 8 -22 12 -41 8 -41 -3 0 -1 -6 5 -12 5 -7 18 -40 27 -73
19 -63 69 -138 96 -143 9 -1 20 8 26 20 10 22 9 170 -1 213 -3 11 -6 64 -7
117 -1 103 -18 127 -21 30 l-1 -57 -9 70 c-5 39 -10 85 -11 103 -2 33 -17 46
-17 15 0 -11 -3 -14 -8 -8 -12 17 -62 46 -62 36z"/>
<path d="M1560 551 c0 -37 32 -56 44 -25 5 13 2 15 -14 11 -11 -3 -18 -1 -15
3 3 5 1 11 -5 15 -5 3 -10 2 -10 -4z"/>
<path d="M471 517 c-1 -31 27 -229 34 -236 8 -7 4 60 -6 119 -24 136 -26 145
-28 117z"/>
<path d="M1442 493 c-5 -10 -12 -60 -16 -111 -5 -83 -9 -98 -41 -148 -40 -62
-41 -66 -20 -57 9 3 14 8 11 11 -3 2 9 25 26 50 26 38 32 59 39 131 5 47 11
98 14 114 6 31 0 35 -13 10z"/>
<path d="M1559 442 c-7 -34 -16 -62 -20 -62 -4 0 -11 -15 -14 -32 -7 -32 -15
-43 -62 -92 -13 -13 -23 -27 -23 -32 0 -4 5 -3 12 4 7 7 21 12 32 12 10 0 16
3 13 6 -4 4 2 19 12 33 23 33 35 62 32 79 -1 6 3 12 9 12 5 0 10 7 10 15 0 8
4 15 9 15 5 0 12 11 15 25 4 14 11 23 16 20 16 -10 11 8 -9 35 l-19 24 -13
-62z"/>
<path d="M810 466 c0 -9 56 -94 89 -136 37 -46 22 -8 -17 44 -22 28 -46 62
-55 76 -10 13 -17 21 -17 16z"/>
<path d="M1306 243 c-4 -13 -14 -30 -22 -38 -13 -12 -13 -15 -1 -15 17 0 41
43 35 62 -3 8 -7 5 -12 -9z"/>
<path d="M987 209 c21 -35 73 -87 73 -73 0 6 -16 25 -35 44 -19 18 -32 36 -30
41 3 4 -2 10 -11 13 -12 5 -12 1 3 -25z"/>
</g>
</svg>
